<svg xmlns="http://www.w3.org/2000/svg" width="292.063" height="67.281" viewBox="0 0 292.063 67.281">
  <metadata><?xpacket begin="﻿" id="W5M0MpCehiHzreSzNTczkc9d"?>
<x:xmpmeta xmlns:x="adobe:ns:meta/" x:xmptk="Adobe XMP Core 5.6-c142 79.160924, 2017/07/13-01:06:39        ">
   <rdf:RDF xmlns:rdf="http://www.w3.org/1999/02/22-rdf-syntax-ns#">
      <rdf:Description rdf:about=""/>
   </rdf:RDF>
</x:xmpmeta>
                                                                                                    
                                                                                                    
                                                                                                    
                                                                                                    
                                                                                                    
                                                                                                    
                                                                                                    
                                                                                                    
                                                                                                    
                                                                                                    
                                                                                                    
                                                                                                    
                                                                                                    
                                                                                                    
                                                                                                    
                                                                                                    
                                                                                                    
                                                                                                    
                                                                                                    
                                                                                                    
                           
<?xpacket end="w"?></metadata>
<defs>
    <style>
      .cls-1 {
        fill: #ffd;
        fill-rule: evenodd;
      }
    </style>
  </defs>
  <path id="Farouq.dev_Front-end_Developer_copy" data-name="Farouq.dev { ; } Front-end Developer copy" class="cls-1" d="M25.6,17.006V13.554H6V41.328H9.97V30.1H23.9V26.687H9.97V17.006H25.6ZM37.545,20.1a16.282,16.282,0,0,0-4.8.694,11.518,11.518,0,0,0-3.888,2l1.587,2.857a9.412,9.412,0,0,1,3.015-1.647,11.139,11.139,0,0,1,3.65-.615A6.026,6.026,0,0,1,41.315,24.7a4.857,4.857,0,0,1,1.428,3.769v0.754H36.712q-4.4,0-6.428,1.686a5.864,5.864,0,0,0,.1,8.947,8.758,8.758,0,0,0,5.654,1.706,10.375,10.375,0,0,0,4.186-.774,6.021,6.021,0,0,0,2.718-2.242v2.778h3.611v-12.7q0-4.245-2.321-6.388T37.545,20.1h0ZM36.672,38.63a5.619,5.619,0,0,1-3.412-.913,2.943,2.943,0,0,1-1.23-2.5q0-3.253,4.841-3.254h5.872V34.9a5.563,5.563,0,0,1-2.3,2.758,7.073,7.073,0,0,1-3.769.972h0Zm20.592-14.8V20.3h-3.65V41.328h3.809V30.853A7.3,7.3,0,0,1,59.189,25.6a6.408,6.408,0,0,1,4.861-1.845,7.544,7.544,0,0,1,.873.04V20.1a10.654,10.654,0,0,0-4.722.952,6.5,6.5,0,0,0-2.936,2.777h0ZM78.412,41.566a11.289,11.289,0,0,0,5.614-1.389,10.111,10.111,0,0,0,3.888-3.829,10.872,10.872,0,0,0,1.409-5.535,10.872,10.872,0,0,0-1.409-5.535,9.972,9.972,0,0,0-3.888-3.809,12.238,12.238,0,0,0-11.249,0,9.929,9.929,0,0,0-3.908,3.809,10.866,10.866,0,0,0-1.409,5.535,10.866,10.866,0,0,0,1.409,5.535,10.066,10.066,0,0,0,3.908,3.829,11.4,11.4,0,0,0,5.634,1.389h0Zm0-3.333a7.1,7.1,0,0,1-3.63-.932,6.711,6.711,0,0,1-2.539-2.619,8.491,8.491,0,0,1,0-7.737,6.58,6.58,0,0,1,2.539-2.6,7.678,7.678,0,0,1,7.261,0,6.452,6.452,0,0,1,2.519,2.6,8,8,0,0,1,.913,3.868,8,8,0,0,1-.913,3.869A6.579,6.579,0,0,1,82.043,37.3a7.1,7.1,0,0,1-3.63.932h0ZM110.392,20.3V31.17a7.163,7.163,0,0,1-1.746,5.158,6.276,6.276,0,0,1-4.761,1.825,5.48,5.48,0,0,1-4.206-1.567,6.528,6.528,0,0,1-1.468-4.622V20.3H94.4V32.4q0,4.523,2.42,6.844a9.173,9.173,0,0,0,6.626,2.321,9.472,9.472,0,0,0,4.107-.893,7.654,7.654,0,0,0,3.035-2.52v3.174H114.2V20.3h-3.809Zm27.258,0v3.333a8.093,8.093,0,0,0-3.214-2.639,10.147,10.147,0,0,0-4.285-.893,11.057,11.057,0,0,0-5.476,1.349,9.713,9.713,0,0,0-3.789,3.769,11.165,11.165,0,0,0-1.369,5.595,11.274,11.274,0,0,0,1.369,5.614,9.669,9.669,0,0,0,3.789,3.789,11.052,11.052,0,0,0,5.476,1.349,9.744,9.744,0,0,0,4.146-.873,8.625,8.625,0,0,0,3.194-2.539V49.025H141.3V20.3h-3.65Zm-7.182,17.934a7.1,7.1,0,0,1-3.63-.932,6.713,6.713,0,0,1-2.54-2.619,8.495,8.495,0,0,1,0-7.737,6.582,6.582,0,0,1,2.54-2.6,7.22,7.22,0,0,1,3.63-.913,7.029,7.029,0,0,1,3.591.932,6.761,6.761,0,0,1,2.539,2.6,7.757,7.757,0,0,1,.933,3.849,8,8,0,0,1-.913,3.869,6.543,6.543,0,0,1-2.539,2.619,7.133,7.133,0,0,1-3.611.932h0Zm18.642,3.316a2.34,2.34,0,0,0,1.714-.718,2.677,2.677,0,0,0,.018-3.629,2.354,2.354,0,0,0-1.732-.7,2.441,2.441,0,0,0-1.768.718,2.392,2.392,0,0,0-.737,1.787,2.486,2.486,0,0,0,2.505,2.542h0ZM171.069,13.99V24.748a7.523,7.523,0,0,0-2.948-2.34,9.356,9.356,0,0,0-3.868-.792,10.268,10.268,0,0,0-5.085,1.253,9.012,9.012,0,0,0-3.518,3.5,10.376,10.376,0,0,0-1.271,5.195,10.476,10.476,0,0,0,1.271,5.213,8.971,8.971,0,0,0,3.518,3.518,10.262,10.262,0,0,0,5.085,1.253,9.244,9.244,0,0,0,3.979-.847,7.657,7.657,0,0,0,2.984-2.469v3.095h3.39V13.99h-3.537Zm-6.521,24.464a6.594,6.594,0,0,1-3.372-.866,6.238,6.238,0,0,1-2.358-2.432,7.891,7.891,0,0,1,0-7.184,6.116,6.116,0,0,1,2.358-2.413,7.093,7.093,0,0,1,6.724,0,5.955,5.955,0,0,1,2.358,2.413,8.032,8.032,0,0,1,0,7.184,6.071,6.071,0,0,1-2.358,2.432,6.62,6.62,0,0,1-3.352.866h0Zm34.411-6.779a10.842,10.842,0,0,0-1.234-5.232,8.939,8.939,0,0,0-3.427-3.555,9.771,9.771,0,0,0-4.992-1.271,9.969,9.969,0,0,0-5.029,1.271,9.1,9.1,0,0,0-3.5,3.555,10.347,10.347,0,0,0-1.271,5.121,10.192,10.192,0,0,0,1.307,5.158,9.061,9.061,0,0,0,3.7,3.555,12.435,12.435,0,0,0,9.893.461,8.554,8.554,0,0,0,3.3-2.358L195.753,36.1a7.241,7.241,0,0,1-5.637,2.358,7.4,7.4,0,0,1-4.808-1.566,6.132,6.132,0,0,1-2.265-4.145h15.842a10.178,10.178,0,0,0,.074-1.069h0ZM189.306,24.6a6.07,6.07,0,0,1,4.255,1.566,6.284,6.284,0,0,1,2.008,4.034H183.043a6.236,6.236,0,0,1,2.007-4.053,6.116,6.116,0,0,1,4.256-1.547h0Zm28-2.8-6.853,15.658L203.749,21.8h-3.685l8.548,19.527h3.61L220.77,21.8h-3.463Zm21.921,6.042V19.774q0-2.874,2.726-2.874h0.922V13.99h-1.622a5.7,5.7,0,0,0-4.163,1.382,5.474,5.474,0,0,0-1.4,4.071v8.474a1.552,1.552,0,0,1-1.658,1.842h-1.289v2.948h1.289a1.552,1.552,0,0,1,1.658,1.842v8.474a5.474,5.474,0,0,0,1.4,4.071,5.7,5.7,0,0,0,4.163,1.382h1.622V45.565h-0.922q-2.727,0-2.726-2.874V34.622a4.4,4.4,0,0,0-.479-2.284,2.653,2.653,0,0,0-1.547-1.105,2.652,2.652,0,0,0,1.547-1.105,4.4,4.4,0,0,0,.479-2.284h0Zm18.458-1.179a2.337,2.337,0,0,0,1.713-.719,2.471,2.471,0,0,0,.719-1.824,2.446,2.446,0,0,0-.7-1.805,2.354,2.354,0,0,0-1.732-.7,2.441,2.441,0,0,0-1.768.718,2.392,2.392,0,0,0-.737,1.787,2.486,2.486,0,0,0,2.5,2.542h0Zm0.037,9.837a2.4,2.4,0,0,0-1.768.7,2.64,2.64,0,0,0-.277,3.224,2.307,2.307,0,0,0,1.124.866l-1.363,5.49h2.321l1.732-5.121q0.368-1.068.5-1.584a4.386,4.386,0,0,0,.129-1.069,2.494,2.494,0,0,0-.682-1.787,2.262,2.262,0,0,0-1.713-.718h0ZM281.3,29.759q-1.622,0-1.621-1.842V19.443a5.437,5.437,0,0,0-1.418-4.071,5.765,5.765,0,0,0-4.182-1.382H272.46V16.9h0.884q2.8,0,2.8,2.874v8.069a4.513,4.513,0,0,0,.461,2.3,2.6,2.6,0,0,0,1.529,1.087,2.6,2.6,0,0,0-1.529,1.087,4.515,4.515,0,0,0-.461,2.3v8.069q0,2.874-2.8,2.874H272.46v2.911h1.621a5.764,5.764,0,0,0,4.182-1.382,5.437,5.437,0,0,0,1.418-4.071V34.549q0-1.842,1.621-1.842h1.253V29.759H281.3ZM18.67,57.312V55.5H5.067V75.337h2.1V66.92H17.423V65.106H7.164V57.312H18.67Zm5.555,6.037V60.429H22.3V75.337H24.31v-7.6a5.757,5.757,0,0,1,1.332-4.053,4.76,4.76,0,0,1,3.684-1.445l0.482,0.028V60.316a7.175,7.175,0,0,0-3.472.765,4.876,4.876,0,0,0-2.111,2.267h0Zm15.162,12.13A7.749,7.749,0,0,0,43.27,74.5a7.031,7.031,0,0,0,2.707-2.707,8.311,8.311,0,0,0,0-7.822A6.936,6.936,0,0,0,43.27,61.28a8.3,8.3,0,0,0-7.765,0,7.031,7.031,0,0,0-2.721,2.692,8.207,8.207,0,0,0,0,7.822A7.127,7.127,0,0,0,35.5,74.5a7.747,7.747,0,0,0,3.883.978h0Zm0-1.785a5.623,5.623,0,0,1-2.848-.723,5.129,5.129,0,0,1-1.984-2.055,6.723,6.723,0,0,1,0-6.065A5.132,5.132,0,0,1,36.539,62.8a5.974,5.974,0,0,1,5.7,0,5.042,5.042,0,0,1,1.97,2.055,6.844,6.844,0,0,1,0,6.065,5.039,5.039,0,0,1-1.97,2.055,5.626,5.626,0,0,1-2.848.723h0ZM58.659,60.316a7.3,7.3,0,0,0-3.387.751,5.6,5.6,0,0,0-2.281,2.111V60.429H51.064V75.337h2.012V67.515a5.406,5.406,0,0,1,1.4-3.953,5.094,5.094,0,0,1,3.812-1.431,4.367,4.367,0,0,1,3.316,1.219,4.943,4.943,0,0,1,1.162,3.543v8.446h2.012V66.693a6.366,6.366,0,0,0-1.658-4.747,6.092,6.092,0,0,0-4.464-1.63h0ZM77.392,72.984a2.987,2.987,0,0,1-1.006.567,3.7,3.7,0,0,1-1.2.2,2.525,2.525,0,0,1-1.913-.694,2.816,2.816,0,0,1-.666-2.026v-8.9h4.535v-1.7H72.6V57.17H70.591v3.259H67.927v1.7h2.664v9.012a3.949,3.949,0,0,0,4.364,4.336,5.658,5.658,0,0,0,1.743-.269,3.814,3.814,0,0,0,1.4-.779Zm2.976-4.449h7.425V66.778H80.368v1.757Zm25.223-.652a8.071,8.071,0,0,0-.935-3.925,6.843,6.843,0,0,0-2.579-2.678,7.209,7.209,0,0,0-3.713-.964,7.282,7.282,0,0,0-3.727.964,6.877,6.877,0,0,0-2.607,2.692,7.987,7.987,0,0,0-.949,3.911,7.711,7.711,0,0,0,.992,3.911A7.047,7.047,0,0,0,94.836,74.5a8.276,8.276,0,0,0,4.067.978,8.385,8.385,0,0,0,3.273-.623,6.387,6.387,0,0,0,2.48-1.814l-1.134-1.3a5.573,5.573,0,0,1-2.012,1.46,6.431,6.431,0,0,1-2.551.5,5.926,5.926,0,0,1-4.081-1.431,5.327,5.327,0,0,1-1.785-3.755h12.47Zm-7.227-5.838a5.109,5.109,0,0,1,3.642,1.375A5.4,5.4,0,0,1,103.664,67H93.093a5.4,5.4,0,0,1,1.658-3.585,5.069,5.069,0,0,1,3.614-1.375h0ZM117.3,60.316a7.3,7.3,0,0,0-3.386.751,5.6,5.6,0,0,0-2.282,2.111V60.429H109.7V75.337h2.012V67.515a5.407,5.407,0,0,1,1.4-3.953,5.094,5.094,0,0,1,3.812-1.431,4.367,4.367,0,0,1,3.316,1.219,4.945,4.945,0,0,1,1.162,3.543v8.446h2.012V66.693a6.367,6.367,0,0,0-1.658-4.747,6.091,6.091,0,0,0-4.464-1.63h0Zm23.239-6.008v8.956a6.2,6.2,0,0,0-2.394-2.2,7.058,7.058,0,0,0-3.274-.751,7.654,7.654,0,0,0-3.8.95,6.787,6.787,0,0,0-2.664,2.678,8.531,8.531,0,0,0,0,7.879,6.879,6.879,0,0,0,2.664,2.692,7.561,7.561,0,0,0,3.8.964,7.025,7.025,0,0,0,3.359-.793,6.136,6.136,0,0,0,2.4-2.3v2.947h1.927V54.308h-2.013Zm-5.5,19.385a5.625,5.625,0,0,1-2.848-.723,5.13,5.13,0,0,1-1.984-2.055,6.729,6.729,0,0,1,0-6.065,5.133,5.133,0,0,1,1.984-2.055,5.918,5.918,0,0,1,5.668,0,5.133,5.133,0,0,1,1.984,2.055,6.721,6.721,0,0,1,0,6.065,5.13,5.13,0,0,1-1.984,2.055,5.571,5.571,0,0,1-2.82.723h0Zm20.972,1.644h8.077a11.8,11.8,0,0,0,5.555-1.261,9.2,9.2,0,0,0,3.741-3.514,10.6,10.6,0,0,0,0-10.288,9.2,9.2,0,0,0-3.741-3.514,11.805,11.805,0,0,0-5.555-1.261h-8.077V75.337Zm2.1-1.814V57.312h5.867a9.623,9.623,0,0,1,4.563,1.035,7.513,7.513,0,0,1,3.032,2.862,8.761,8.761,0,0,1,0,8.417,7.51,7.51,0,0,1-3.032,2.862,9.618,9.618,0,0,1-4.563,1.034H158.1Zm33.9-5.64a8.071,8.071,0,0,0-.935-3.925,6.843,6.843,0,0,0-2.579-2.678,7.209,7.209,0,0,0-3.713-.964,7.283,7.283,0,0,0-3.727.964,6.88,6.88,0,0,0-2.607,2.692,7.979,7.979,0,0,0-.95,3.911,7.718,7.718,0,0,0,.992,3.911,7.045,7.045,0,0,0,2.763,2.707,8.278,8.278,0,0,0,4.067.978,8.385,8.385,0,0,0,3.274-.623,6.387,6.387,0,0,0,2.48-1.814l-1.134-1.3a5.573,5.573,0,0,1-2.012,1.46,6.43,6.43,0,0,1-2.551.5,5.925,5.925,0,0,1-4.081-1.431,5.325,5.325,0,0,1-1.785-3.755h12.47Zm-7.227-5.838a5.108,5.108,0,0,1,3.642,1.375A5.4,5.4,0,0,1,190.074,67H179.5a5.393,5.393,0,0,1,1.657-3.585,5.071,5.071,0,0,1,3.614-1.375h0Zm21.6-1.615-5.64,12.7-5.583-12.7h-2.1l6.6,14.907h2.069l6.631-14.907H206.37Zm17.4,7.454a8.06,8.06,0,0,0-.936-3.925,6.829,6.829,0,0,0-2.579-2.678,7.2,7.2,0,0,0-3.712-.964,7.28,7.28,0,0,0-3.727.964,6.873,6.873,0,0,0-2.607,2.692,7.979,7.979,0,0,0-.95,3.911,7.707,7.707,0,0,0,.992,3.911,7.045,7.045,0,0,0,2.763,2.707,8.278,8.278,0,0,0,4.067.978,8.389,8.389,0,0,0,3.274-.623,6.383,6.383,0,0,0,2.479-1.814l-1.133-1.3a5.573,5.573,0,0,1-2.012,1.46,6.434,6.434,0,0,1-2.551.5,5.925,5.925,0,0,1-4.081-1.431,5.33,5.33,0,0,1-1.786-3.755h12.47Zm-7.227-5.838a5.11,5.11,0,0,1,3.642,1.375A5.4,5.4,0,0,1,221.843,67H211.272a5.4,5.4,0,0,1,1.658-3.585,5.071,5.071,0,0,1,3.614-1.375h0ZM227.88,75.337h2.012V54.308H227.88V75.337ZM241.6,75.478a7.747,7.747,0,0,0,3.882-.978,7.028,7.028,0,0,0,2.707-2.707,8.309,8.309,0,0,0,0-7.822,6.933,6.933,0,0,0-2.707-2.692,8.3,8.3,0,0,0-7.765,0,7.029,7.029,0,0,0-2.721,2.692,8.206,8.206,0,0,0,0,7.822,7.125,7.125,0,0,0,2.721,2.707,7.748,7.748,0,0,0,3.883.978h0Zm0-1.785a5.626,5.626,0,0,1-2.849-.723,5.121,5.121,0,0,1-1.983-2.055,6.721,6.721,0,0,1,0-6.065,5.124,5.124,0,0,1,1.983-2.055,5.975,5.975,0,0,1,5.7,0,5.049,5.049,0,0,1,1.97,2.055,6.848,6.848,0,0,1,0,6.065,5.046,5.046,0,0,1-1.97,2.055,5.625,5.625,0,0,1-2.848.723h0Zm19.356-13.377a7.026,7.026,0,0,0-3.358.794,6.2,6.2,0,0,0-2.4,2.267V60.429h-1.927V80.835h2.012v-8.3a6.205,6.205,0,0,0,2.4,2.2,7.046,7.046,0,0,0,3.273.751,7.631,7.631,0,0,0,3.812-.949,6.813,6.813,0,0,0,2.65-2.678,8.589,8.589,0,0,0,0-7.907,6.787,6.787,0,0,0-2.664-2.678,7.66,7.66,0,0,0-3.8-.95h0Zm-0.141,13.377a5.626,5.626,0,0,1-2.849-.723,5.128,5.128,0,0,1-1.983-2.055,6.253,6.253,0,0,1-.723-3.032,6.172,6.172,0,0,1,.723-3.018,5.256,5.256,0,0,1,1.983-2.055,5.848,5.848,0,0,1,5.683,0,5.231,5.231,0,0,1,2,2.055,6.172,6.172,0,0,1,.723,3.018,6.253,6.253,0,0,1-.723,3.032,5.1,5.1,0,0,1-2,2.055,5.647,5.647,0,0,1-2.834.723h0Zm24.684-5.81a8.06,8.06,0,0,0-.935-3.925,6.829,6.829,0,0,0-2.579-2.678,7.207,7.207,0,0,0-3.712-.964,7.28,7.28,0,0,0-3.727.964,6.876,6.876,0,0,0-2.608,2.692,7.989,7.989,0,0,0-.949,3.911,7.707,7.707,0,0,0,.992,3.911,7.045,7.045,0,0,0,2.763,2.707,8.278,8.278,0,0,0,4.067.978,8.384,8.384,0,0,0,3.273-.623,6.379,6.379,0,0,0,2.48-1.814l-1.133-1.3a5.568,5.568,0,0,1-2.013,1.46,6.429,6.429,0,0,1-2.55.5,5.925,5.925,0,0,1-4.081-1.431A5.326,5.326,0,0,1,273,68.507h12.47Zm-7.226-5.838a5.106,5.106,0,0,1,3.641,1.375A5.4,5.4,0,0,1,283.569,67H273a5.4,5.4,0,0,1,1.658-3.585,5.069,5.069,0,0,1,3.614-1.375h0Zm13.263,1.3V60.429h-1.927V75.337h2.012v-7.6a5.754,5.754,0,0,1,1.332-4.053,4.761,4.761,0,0,1,3.684-1.445l0.482,0.028V60.316a7.176,7.176,0,0,0-3.472.765,4.876,4.876,0,0,0-2.111,2.267h0Z" transform="translate(-5.063 -13.563)"/>
</svg>
